<?xml version="1.0" encoding="UTF-8" standalone="no"?>
<svg
   version="1.1"
   x="0px"
   y="0px"
   viewBox="0 0 273.10996 372.77"
   xml:space="preserve"
   id="svg3"
   sodipodi:docname="favicon.svg"
   width="273.10995"
   height="372.76999"
   inkscape:version="1.3 (0e150ed6c4, 2023-07-21)"
   xmlns:inkscape="http://www.inkscape.org/namespaces/inkscape"
   xmlns:sodipodi="http://sodipodi.sourceforge.net/DTD/sodipodi-0.dtd"
   xmlns:xlink="http://www.w3.org/1999/xlink"
   xmlns="http://www.w3.org/2000/svg"
   xmlns:svg="http://www.w3.org/2000/svg"><defs
   id="defs3" /><sodipodi:namedview
   id="namedview3"
   pagecolor="#ffffff"
   bordercolor="#999999"
   borderopacity="1"
   inkscape:showpageshadow="0"
   inkscape:pageopacity="0"
   inkscape:pagecheckerboard="0"
   inkscape:deskcolor="#d1d1d1"
   inkscape:zoom="0.90975476"
   inkscape:cx="139.59806"
   inkscape:cy="327.01121"
   inkscape:window-width="3840"
   inkscape:window-height="2054"
   inkscape:window-x="2869"
   inkscape:window-y="-11"
   inkscape:window-maximized="1"
   inkscape:current-layer="svg3" />&#10;<style
   type="text/css"
   id="style1">&#10;	.st1{clip-path:url(#SVGID_2_);fill:url(#SVGID_3_);}&#10;	.st3{clip-path:url(#SVGID_5_);fill:#CC9664;}&#10;</style>&#10;<switch
   id="switch3"
   transform="translate(-860.1,-672.45001)">&#10;	<g
   id="g3">&#10;		<g
   id="g2">&#10;			<defs
   id="defs1">&#10;				<path
   id="SVGID_1_"
   d="m 978.09,1026.31 v -98.93 c 0.01,-5.6 2.25,-10.59 5.91,-14.27 3.68,-3.67 8.67,-5.91 14.27,-5.91 5.6,0 10.59,2.25 14.27,5.91 3.67,3.68 5.91,8.67 5.91,14.27 v 98.39 c -7.07,1.32 -14.35,2.02 -21.8,2.02 -6.31,0 -12.5,-0.52 -18.56,-1.48 m -17.43,-98.93 v 113.2 l 6.86,1.49 c 9.38,2.04 19.12,3.15 29.13,3.15 11.24,0 22.16,-1.39 32.59,-3.95 l 6.64,-1.63 V 927.38 c -0.01,-20.78 -16.84,-37.61 -37.62,-37.62 -20.77,0.01 -37.6,16.85 -37.6,37.62 M 877.53,908.67 V 749.76 l 119.12,-57.93 119.13,57.93 v 158.91 c 0,30.97 -11.82,59.11 -31.19,80.3 V 874.69 c -0.01,-47.27 -38.31,-85.58 -85.58,-85.58 -47.27,0.01 -85.57,38.31 -85.58,85.58 v 119.09 c -22.13,-21.63 -35.9,-51.72 -35.9,-85.11 M 992.84,674.3 860.1,738.85 v 169.82 c 0,45.69 22.49,86.17 56.96,110.92 l 13.8,9.92 V 874.69 c 0,-18.85 7.62,-35.83 19.96,-48.19 12.36,-12.35 29.34,-19.96 48.19,-19.96 18.85,0 35.83,7.61 48.19,19.96 12.35,12.36 19.96,29.34 19.96,48.19 v 152.28 l 14.12,-11.17 c 31.6,-24.98 51.93,-63.71 51.93,-107.13 V 738.85 l -136.56,-66.4 z" />&#10;			</defs>&#10;			<clipPath
   id="SVGID_2_">&#10;				<use
   xlink:href="#SVGID_1_"
   style="overflow:visible"
   id="use1" />&#10;			</clipPath>&#10;			&#10;			<linearGradient
   id="SVGID_3_"
   gradientUnits="userSpaceOnUse"
   x1="-2.783444e-06"
   y1="1999.4399"
   x2="1"
   y2="1999.4399"
   gradientTransform="matrix(0,-372.7748,-372.7748,0,746337.44,1045.2219)">&#10;				<stop
   offset="0"
   style="stop-color:#7C5FD7"
   id="stop1" />&#10;				<stop
   offset="1"
   style="stop-color:#F9C477"
   id="stop2" />&#10;			</linearGradient>&#10;			<rect
   x="860.09998"
   y="672.45001"
   class="st1"
   width="273.10999"
   height="372.78"
   clip-path="url(#SVGID_2_)"
   id="rect2"
   style="fill:url(#SVGID_3_)" />&#10;		</g>&#10;	</g>&#10;</switch>&#10;</svg>
